HIERARCHY
ROOT Hips
{
	OFFSET -14.64140 90.27770 -84.91600
	CHANNELS 6 Xposition Yposition Zposition Zrotation Xrotation Yrotation
	JOINT Spine
	{
		OFFSET 0.00000 13.20850 -1.60436
		CHANNELS 3 Zrotation Xrotation Yrotation
		JOINT Spine1
		{
			OFFSET 0.00000 8.61716 0.00000
			CHANNELS 3 Zrotation Xrotation Yrotation
			JOINT Spine2
			{
				OFFSET 0.00000 8.61717 0.00000
				CHANNELS 3 Zrotation Xrotation Yrotation
				JOINT Spine3
				{
					OFFSET 0.00000 8.61717 0.00000
					CHANNELS 3 Zrotation Xrotation Yrotation
					JOINT Neck
					{
						OFFSET 0.00000 11.07920 1.10792
						CHANNELS 3 Zrotation Xrotation Yrotation
						JOINT Neck1
						{
							OFFSET 0.00000 7.08032 0.00000
							CHANNELS 3 Zrotation Xrotation Yrotation
							JOINT Head
							{
								OFFSET 0.00000 7.08031 0.00000
								CHANNELS 3 Zrotation Xrotation Yrotation
								End site
								{
									OFFSET 0.00000 0.00000 0.00000
								}
							}
						}
					}
					JOINT RightShoulder
					{
						OFFSET -0.01000 7.91373 5.19711
						CHANNELS 3 Zrotation Xrotation Yrotation
						JOINT RightArm
						{
							OFFSET -18.41580 0.00000 0.00000
							CHANNELS 3 Zrotation Xrotation Yrotation
							JOINT RightForeArm
							{
								OFFSET -29.11090 0.00000 0.00000
								CHANNELS 3 Zrotation Xrotation Yrotation
								JOINT RightHand
								{
									OFFSET -24.65040 0.00000 0.00000
									CHANNELS 3 Zrotation Xrotation Yrotation
									JOINT RightHandThumb1
									{
										OFFSET -5.35114 -0.85590 3.97906
										CHANNELS 3 Zrotation Xrotation Yrotation
										JOINT RightHandThumb2
										{
											OFFSET -4.52789 0.00000 0.00000
											CHANNELS 3 Zrotation Xrotation Yrotation
											JOINT RightHandThumb3
											{
												OFFSET -2.46976 0.00000 0.00000
												CHANNELS 3 Zrotation Xrotation Yrotation
												End site
												{
													OFFSET 0.00000 0.00000 0.00000
												}
											}
										}
									}
									JOINT RightHandIndex1
									{
										OFFSET -14.26970 0.00000 2.88139
										CHANNELS 3 Zrotation Xrotation Yrotation
										JOINT RightHandIndex2
										{
											OFFSET -5.48836 0.00000 0.00000
											CHANNELS 3 Zrotation Xrotation Yrotation
											JOINT RightHandIndex3
											{
												OFFSET -3.01859 0.00000 0.00000
												CHANNELS 3 Zrotation Xrotation Yrotation
												End site
												{
													OFFSET 0.00000 0.00000 0.00000
												}
											}
										}
									}
									JOINT RightHandMiddle1
									{
										OFFSET -14.26970 0.00000 -0.09147
										CHANNELS 3 Zrotation Xrotation Yrotation
										JOINT RightHandMiddle2
										{
											OFFSET -6.17441 0.00000 0.00000
											CHANNELS 3 Zrotation Xrotation Yrotation
											JOINT RightHandMiddle3
											{
												OFFSET -3.56743 0.00000 0.00000
												CHANNELS 3 Zrotation Xrotation Yrotation
												End site
												{
													OFFSET 0.00000 0.00000 0.00000
												}
											}
										}
									}
									JOINT RightHandRing1
									{
										OFFSET -12.69180 0.00000 -3.06433
										CHANNELS 3 Zrotation Xrotation Yrotation
										JOINT RightHandRing2
										{
											OFFSET -5.62556 0.00000 0.00000
											CHANNELS 3 Zrotation Xrotation Yrotation
											JOINT RightHandRing3
											{
												OFFSET -3.56744 0.00000 0.00000
												CHANNELS 3 Zrotation Xrotation Yrotation
												End site
												{
													OFFSET 0.00000 0.00000 0.00000
												}
											}
										}
									}
									JOINT RightHandPinky1
									{
										OFFSET -11.11390 0.00000 -6.03719
										CHANNELS 3 Zrotation Xrotation Yrotation
										JOINT RightHandPinky2
										{
											OFFSET -4.52789 0.00000 0.00000
											CHANNELS 3 Zrotation Xrotation Yrotation
											JOINT RightHandPinky3
											{
												OFFSET -2.46976 0.00000 0.00000
												CHANNELS 3 Zrotation Xrotation Yrotation
												End site
												{
													OFFSET 0.00000 0.00000 0.00000
												}
											}
										}
									}
								}
							}
						}
					}
					JOINT LeftShoulder
					{
						OFFSET 0.01000 7.91373 5.19711
						CHANNELS 3 Zrotation Xrotation Yrotation
						JOINT LeftArm
						{
							OFFSET 18.41580 0.00000 0.00000
							CHANNELS 3 Zrotation Xrotation Yrotation
							JOINT LeftForeArm
							{
								OFFSET 29.11090 0.00000 0.00000
								CHANNELS 3 Zrotation Xrotation Yrotation
								JOINT LeftHand
								{
									OFFSET 24.65040 0.00000 0.00000
									CHANNELS 3 Zrotation Xrotation Yrotation
									JOINT LeftHandThumb1
									{
										OFFSET 5.35114 -0.85590 3.97906
										CHANNELS 3 Zrotation Xrotation Yrotation
										JOINT LeftHandThumb2
										{
											OFFSET 4.52789 0.00000 0.00000
											CHANNELS 3 Zrotation Xrotation Yrotation
											JOINT LeftHandThumb3
											{
												OFFSET 2.46977 0.00000 0.00000
												CHANNELS 3 Zrotation Xrotation Yrotation
												End site
												{
													OFFSET 0.00000 0.00000 0.00000
												}
											}
										}
									}
									JOINT LeftHandIndex1
									{
										OFFSET 14.26970 0.00000 2.88139
										CHANNELS 3 Zrotation Xrotation Yrotation
										JOINT LeftHandIndex2
										{
											OFFSET 5.48836 0.00000 0.00000
											CHANNELS 3 Zrotation Xrotation Yrotation
											JOINT LeftHandIndex3
											{
												OFFSET 3.01859 0.00000 0.00000
												CHANNELS 3 Zrotation Xrotation Yrotation
												End site
												{
													OFFSET 0.00000 0.00000 0.00000
												}
											}
										}
									}
									JOINT LeftHandMiddle1
									{
										OFFSET 14.26970 0.00000 -0.09147
										CHANNELS 3 Zrotation Xrotation Yrotation
										JOINT LeftHandMiddle2
										{
											OFFSET 6.17440 0.00000 0.00000
											CHANNELS 3 Zrotation Xrotation Yrotation
											JOINT LeftHandMiddle3
											{
												OFFSET 3.56744 0.00000 0.00000
												CHANNELS 3 Zrotation Xrotation Yrotation
												End site
												{
													OFFSET 0.00000 0.00000 0.00000
												}
											}
										}
									}
									JOINT LeftHandRing1
									{
										OFFSET 12.69180 0.00000 -3.06433
										CHANNELS 3 Zrotation Xrotation Yrotation
										JOINT LeftHandRing2
										{
											OFFSET 5.62556 0.00000 0.00000
											CHANNELS 3 Zrotation Xrotation Yrotation
											JOINT LeftHandRing3
											{
												OFFSET 3.56744 0.00000 0.00000
												CHANNELS 3 Zrotation Xrotation Yrotation
												End site
												{
													OFFSET 0.00000 0.00000 0.00000
												}
											}
										}
									}
									JOINT LeftHandPinky1
									{
										OFFSET 11.11390 0.00000 -6.03719
										CHANNELS 3 Zrotation Xrotation Yrotation
										JOINT LeftHandPinky2
										{
											OFFSET 4.52789 0.00000 0.00000
											CHANNELS 3 Zrotation Xrotation Yrotation
											JOINT LeftHandPinky3
											{
												OFFSET 2.46976 0.00000 0.00000
												CHANNELS 3 Zrotation Xrotation Yrotation
												End site
												{
													OFFSET 0.00000 0.00000 0.00000
												}
											}
										}
									}
								}
							}
						}
					}
					JOINT pCube4
					{
						OFFSET 0.00000 10.91090 1.10792
						CHANNELS 3 Zrotation Xrotation Yrotation
						End site
						{
							OFFSET 0.00000 0.00000 0.00000
						}
					}
				}
			}
		}
	}
	JOINT RightUpLeg
	{
		OFFSET -9.98441 0.00000 0.00000
		CHANNELS 3 Zrotation Xrotation Yrotation
		JOINT RightLeg
		{
			OFFSET 0.00000 -42.11790 0.00000
			CHANNELS 3 Zrotation Xrotation Yrotation
			JOINT RightFoot
			{
				OFFSET 0.00000 -45.00020 -0.00001
				CHANNELS 3 Zrotation Xrotation Yrotation
				JOINT RightForeFoot
				{
					OFFSET 0.00000 -3.74820 0.00000
					CHANNELS 3 Zrotation Xrotation Yrotation
					JOINT RightToeBase
					{
						OFFSET 0.00000 0.06325 14.43120
						CHANNELS 3 Zrotation Xrotation Yrotation
						End site
						{
							OFFSET 0.00000 0.00000 0.00000
						}
					}
				}
			}
		}
	}
	JOINT LeftUpLeg
	{
		OFFSET 9.98441 0.00000 0.00000
		CHANNELS 3 Zrotation Xrotation Yrotation
		JOINT LeftLeg
		{
			OFFSET 0.00000 -42.11800 0.00000
			CHANNELS 3 Zrotation Xrotation Yrotation
			JOINT LeftFoot
			{
				OFFSET 0.00000 -45.00070 0.00000
				CHANNELS 3 Zrotation Xrotation Yrotation
				JOINT LeftForeFoot
				{
					OFFSET 0.00000 -3.74824 0.00000
					CHANNELS 3 Zrotation Xrotation Yrotation
					JOINT LeftToeBase
					{
						OFFSET 0.00000 0.06325 14.43110
						CHANNELS 3 Zrotation Xrotation Yrotation
						End site
						{
							OFFSET 0.00000 0.00000 0.00000
						}
					}
				}
			}
		}
	}
}
MOTION
Frames: 4
Frame Time: 0.050000
-0.035756925189292126 0.044898273494340155 -0.010963213565968603 0.010262656234264325 0.03277376097415522 -0.011346782097173219 4.553000978462308 3.095708703114679 -2.0796840029204553 -0.7421983321760346 3.4955686561870007 0.38490681019352474 -0.6677319333292684 -1.0955376994870738 -0.13278578137854782 -0.40534315744095223 -0.2709955292846948 -0.4403810593543152 -0.16657024100741546 12.349197896886372 -0.9718437666169351 0.31635824463959594 -0.42839187373907794 -1.430227882853301 0.7122081519432142 -16.797727919217692 -0.18296660421425232 -9.347957888572463 3.165879900014218 -18.5170830510993 77.44647658007759 5.371527209714945 -0.13965638353319854 -17.699512376988046 -4.470841129443417 59.30640671924848 22.35030060600825 -0.25295535204846364 -7.193070923406087 4.555609578721312 -0.15936346793310674 -1.643029617694017 -0.002559256325038417 0.014692343195693932 -56.19100176554058 0.005621874076153092 -0.020119185193962524 -56.26895007824875 -38.79866656055128 -0.04450972440652945 0.02711330931756622 -0.0033973792038874445 0.03868122071313193 0.034352364522397996 0.03800807926912086 0.02111578934309486 0.0231858648059105 -36.65978080066642 -0.002655312486116881 0.012584362605701987 0.006592598897895049 0.0021015251181448957 -0.0029738336712959814 0.013591120941755309 -0.023975390655414673 -0.00916508930301803 -19.768239111330605 0.030464620718067395 -0.015649096260960973 -0.023122639402344315 0.009728812904464196 -0.024396167533285107 0.005876669184378834 -0.031007107838311853 0.01864636125936109 24.068500398108828 0.034118351646983125 -0.002528791462070001 28.823071106200214 -0.022510933618399218 -0.04753316331734154 28.858430431109422 -0.0408310206769547 -0.03190141441824428 10.184533554212772 2.436731690593101 15.264490017430369 -72.72274823611104 19.878544376643127 -13.83497441262699 -40.60931434591829 6.7320444288335235 -90.5448402717764 -21.753364089513976 -9.713700190182895 6.600706529129105 -0.43594571080807415 0.09722483567026304 -8.14695976571216 -0.029643078396891207 -0.02557909214238998 44.5747223207364 0.01385419172714572 0.016963365883582906 44.593083966419705 12.503589712513959 0.0037641816115891276 0.04667168357844708 -0.00047053908916249235 0.01542600920169064 0.03254096343947265 0.023353476189876328 0.026438809650137327 0.021489511135593803 11.11868284098003 -0.0052248955366874525 0.01380360470054454 0.03211774329592092 0.028423549711768126 0.0377485288719106 0.0358667884725138 -0.03651452140262774 0.03531153551415049 4.725127447558745 0.0405599749158753 0.006796889417740323 0.04042954716698034 -0.04816798402010046 0.03817300449805722 -0.01808431387985727 -0.03576272499940083 0.010710071105575881 -5.646519873996399 0.039428640592363895 -0.004530196196350492 -6.681466882554408 -0.04299849124869822 -0.006512585047350601 -6.717496438750272 -0.019448267466476182 0.012248398377543726 -0.03167619748756676 0.03208460911802163 0.04170145869537896 8.028791743839752 3.4583457388203596 -19.202462787461155 0.02067537835851961 10.387374770473322 0.04943991051840327 -5.634774866336995 -15.652784390822106 3.1762519677842453 0.04492427730053863 0.032100939761410444 -0.026533206556619063 0.04113830932061792 4.668839389571671 -0.039272487011681984 12.474132159919701 -8.282319627890287 6.9129164289102 0.029767368489896705 46.329419287894105 -0.026905121426730377 -4.340765320457794 -14.705002531475456 -3.8408915975103337 -0.049640188450446175 -0.019343234397862983 0.001981957578374388 0.004269511153436605 -10.758994536627863 -0.03543719953528079 
-0.01300273499520064 0.023862091040125682 0.035922811392510676 -0.014486117324667029 0.018551128070284296 0.008728343111619758 4.463174302003772 3.1200501713238817 -2.065630869276348 -0.7993992201470389 3.48174788125716 0.36256801139369366 -0.6498148023821242 -1.0788782994902064 -0.062240773425441466 -0.4625867225824956 -0.25637389237726727 -0.4419191665136146 -0.0800256415123486 12.174041711072936 -0.9989531036475781 0.3899368277799653 -0.48606965279748754 -1.5700284655467454 0.7079689486030536 -16.820484886335457 -0.1408370199285461 -9.291143560314792 3.1287102663591853 -18.45735257757835 77.73173856625263 5.170769576333094 -0.06740031952460256 -18.073434580096585 -4.688865477663227 59.71340888991904 22.48428700080636 -0.2665756009348414 -7.401788749049675 4.533043279534839 -0.12192142955319729 -1.552714848909034 0.008013745533545627 0.04461239478991826 -56.240376685674335 -0.019435303024361642 0.022358182111845516 -56.2420176774332 -38.802746478943 0.046567504756766194 0.019161807304951806 0.04080457059735142 -0.011393508769617438 0.033701971429988375 0.031010848354384744 0.03947341136242276 0.02065483453863592 -36.65371960983394 -0.011067604379868092 0.03757132903848137 -0.037584340585043424 0.01811910076936375 -0.023789234174165893 0.007479113374133486 0.030449614544985938 0.03970929357115754 -19.73473751344903 -0.0004576950411020592 -0.003999312666986575 0.005527826864304383 -0.01824205591668206 0.046091042841552944 -0.03611799372712944 -0.004770628485383213 0.00985057611098138 24.04921801767966 -0.03803641352269056 -0.01631165722249536 28.878368608311824 -0.013630102834955854 -0.029326247830886856 28.903578328717725 -0.046829730036159437 -0.04368536048070619 9.973363008817243 2.3891466266387003 15.268452879207961 -73.60381250751169 19.611872155277073 -12.596990596810922 -43.74195348622964 6.841694861494597 -90.9635384234511 -21.730880124160013 -9.888433530018153 6.65196360783604 -0.4888912065331967 0.05984575177171534 -8.096499241235673 -0.04918018385157657 -0.02160975300799631 44.529050135580846 0.03159636189630366 0.005548443286922063 44.566461672800045 12.484340018832416 0.00017595518783288268 -0.01028869226505592 -0.030113332433269822 0.01791938478355333 -0.004721205273503621 -0.03439778722376061 0.012442483386699218 -0.04148313720723084 11.102361210604835 -0.003922136097541361 0.02107291605089168 0.03341656438168065 0.03144201423974347 0.046333474939858024 -0.0017984630195975525 -0.02413452323154225 0.023943133003234803 4.765474532597488 -0.04209351916400359 -0.015751355003441856 -0.03499548426238168 0.024978544748335847 0.005917723479234773 0.008104922665540021 0.01887583893900309 -0.04887168958150183 -5.576743105950151 -0.02672112212751631 0.03743029641039704 -6.770518154564812 0.026331191558898154 -0.03505829444105115 -6.767469236611937 -0.0030381858994630692 -0.03804034285898818 0.009418213904588128 -0.0048812947969130065 -0.0032828691779093156 8.012939045156225 3.513765157730086 -19.232978189643937 0.045700743589008455 10.403350965978282 -0.03262973936963398 -5.617618145808684 -15.688517267870454 3.184164313663072 0.0014379686890503526 -0.003923093542989777 0.033366071030433306 -0.0020002109579736233 4.698921839016598 -0.0001995176581056256 12.491848125671805 -8.278321398511572 6.896269978397762 0.007425507455489279 46.389464765126924 -0.03757151285721678 -4.3429888388141515 -14.718825301259944 -3.8219690404343956 0.0033834540679691036 -0.027056089713530174 -0.011002075768393942 -0.003971241020266629 -10.735912227809063 -0.039462919451402 
-0.007921767960834216 0.02966753581926911 -0.03306289656254714 -0.03417957232711202 -0.006097807550184027 -0.04008310173355616 4.2958054188562365 3.027852062253014 -2.0588972463091335 -0.737878455149357 3.4883183311275374 0.36371505041595853 -0.6728710720488312 -1.1134584485269252 -0.05966808386645254 -0.4538740848414327 -0.3066369808470385 -0.48150261118555915 -0.11983449837216492 12.104206103579658 -0.9508904125864629 0.3346023663081556 -0.5107957167901982 -1.543693749149782 0.7014096298178807 -16.867225732271017 -0.20185013607812877 -9.223221715920083 3.1881003859562176 -18.339571056748714 78.30772844127783 4.187830868252597 0.11994474626419283 -16.751202043293944 -3.9093987113022486 58.40801610981177 22.166164057043176 -0.2723006233818533 -6.973722028676244 4.552445078735388 -0.1463752987939274 -1.6216376888309862 -0.0057168394394702055 0.029795400923192092 -56.21086891183172 -0.009468610039931444 -0.01257229786917116 -56.24868697694159 -38.80060059111572 -0.0178117317419895 0.038547805000335354 0.012498928242075236 -0.0160672667934108 0.03788159592638506 -0.005002648723708948 0.046786429979744436 -0.01603559089601385 -36.685276635718154 0.010387994098222629 -0.021725560635850544 -0.012592322122509164 -0.03603648841325733 0.008765234067849959 -0.00944153026844798 -0.006249776345345348 0.0017112144498063696 -19.776099168303933 0.009082045948099622 -0.011834861572604714 -0.0017163621885323576 0.018058696575912 0.007166993910533466 0.03973189751315453 0.0029122840226513003 0.034851108876607514 24.06422904564059 0.00013918170344077673 0.028973831422362407 28.83060671148869 0.02964490855904114 0.019432964790326978 28.860161866463113 0.002837922581081254 0.02699366418772556 9.81393401153814 2.3479708730946993 15.232699682432145 -74.23801102177399 18.843434605743806 -12.113837839794318 -46.455759081274905 6.622311195736923 -91.40336707133764 -21.225757438658157 -9.550238625675487 6.301337913587209 -0.47587052147194436 0.08514888637387778 -8.112411625301247 0.032401635584407805 -0.013341939933467767 44.60552190042854 0.03711482338624332 -0.03550254307671236 44.597742711716094 12.469664146806444 -0.01941947741598707 -0.004506558756451661 0.046326586058330115 0.009688243308071302 -0.022846547035817687 -0.017674512437392525 0.004064951919665024 -0.0014669934763107478 11.14116376346721 -0.005217937111562061 -0.00682362833908251 -0.017098695993287956 -0.025147890472501613 0.026881565332446077 0.03929986870766552 -0.034190665108016036 -0.027905832032638037 4.784241091396516 -0.025959371310358997 -0.017693198957775887 0.03153724694250444 -0.04788188235312328 0.00844504146903323 -0.045558207383022555 0.047347518411971906 -0.0027490044609991523 -5.5909788643201805 0.025634187561219917 -0.021628268798128986 -6.749989970389133 0.017915306071749394 -0.013095163589878191 -6.73125808417599 0.03657592505826911 -0.03824036119675895 0.04254710482768004 0.04395596530594216 0.04406765476289596 8.013281401613172 3.5078763218331073 -19.17337939888085 0.04575042483660991 10.369761799685511 0.030179353193302703 -5.662337939630664 -15.644485212379845 3.1894405251580378 0.03249906782151959 -0.004572333122811386 -0.027506478299928114 -0.040763143886073674 4.672211815560273 0.004177579310090865 12.466321408048154 -8.263412438847654 6.911978049718519 -0.046603911238310605 46.39248444497733 -0.002625820680782101 -4.3109796197458 -14.74857392540354 -3.860275261060964 -0.04419348985691187 0.007887956080600505 0.0388692742115221 0.03229690665270559 -10.778499835174681 -0.024422571811915608 
-0.04158441401876098 -0.030219474832699923 -0.004277547800520309 -0.026765272258417457 -0.0268165125716825 0.01068355119743018 4.209308494613052 2.926293725953431 -2.1260849282405143 -0.8105627396024241 3.4857475548493424 0.3229465864413094 -0.6678394552083387 -1.098210762090497 -0.012783035030205607 -0.4199631983875248 -0.35895673910405146 -0.4223648400185721 -0.18875225511482926 12.141551708166807 -0.8596229214224967 0.3528143024242274 -0.562437451132249 -1.2820470009022251 0.7392586852444227 -16.803287161242917 -0.1787073214599746 -9.170248535644028 3.1565378347815036 -18.330812823209467 79.11429031339385 2.833129796656326 0.34546424046126245 -14.602365035649159 -2.1110591009508677 55.94978559607027 21.32475982712481 -0.18169213884518978 -6.289285447819925 4.5350630217349135 -0.10457255049981369 -1.5741414744195594 -0.012040192096991986 -0.02071626715144403 -56.26246881304022 -0.006208691209426347 0.0412609919530898 -56.28280150487654 -38.7661435414694 -0.004553699880684019 0.029923952417795614 -0.02955257764141789 0.006648105558827151 -0.04953455695845973 0.02117652837939422 -0.01274866295817548 0.0197976367695797 -36.67110895626495 0.008728183316376663 -0.022021569438125176 -0.01900643391450448 0.014084092274913388 -0.01721056254818156 -0.027332053924025566 0.01268674829718274 0.03889204522154348 -19.792318269763058 0.02168391029809703 0.018773303907895618 -0.022096498782461393 0.030069698069983976 -0.04101660386355187 -0.020705521671207407 -0.014234883586781303 0.03077944443435788 24.08193662529398 -0.013944897155966775 -0.013178503575883203 28.842643371428775 0.0030929131939218886 0.005664926726994056 28.837672988747133 0.046830456265974235 -0.038925502400347395 9.828477830796722 2.3122370723515053 15.1518610705179 -74.46420625205495 17.942357143900967 -12.47541152103282 -47.48017891820137 5.9974711905610665 -91.52022647788931 -20.39062822396617 -9.10374502519917 5.764960219654821 -0.4753313760749734 0.03614365212510464 -8.14995162174968 -0.00601919011751335 -0.049458148919728745 44.57653022756798 0.04183735493386595 -0.020438852187823923 44.61286750448908 12.463371765296651 -0.022734013868189507 -0.04219234348472848 -0.029812597381406788 0.025590518960154157 0.008246081749023413 0.02686011057850224 -0.029913330147733307 0.01990450831117995 11.105443062142935 -0.03149035743755855 0.04151308386664494 -0.031059431174359733 0.01870365536646646 0.02900418629366548 -0.0024613465782046054 -0.0400916656589972 0.017278817375708678 4.736924868289275 0.02972844353038057 0.002418203216068671 -0.034816542349152664 0.039411891259700065 0.023221309496269077 0.049330324410617625 0.005241123506832299 0.03391728493812306 -5.599841705803804 0.005545642755190377 0.010326658423912895 -6.744539128567106 0.021999965987699825 0.007590343595783079 -6.731985064129899 0.015382685141141791 -0.03278727780845519 -0.03340121588210548 -0.028729514757630414 -0.0051181339137357 8.076645590185132 3.4949388475794736 -19.21946616026975 -0.02300455987781339 10.400944421176172 0.01530679513114087 -5.593049850471823 -15.668379418174931 3.214266401643613 0.002222725597638281 0.020921080096218507 0.04499260234363072 0.048127703340865344 4.700265344486442 0.013205068553164364 12.444439199516829 -8.276866449525556 6.92699757528666 0.03235417657227515 46.34565999176928 0.04272184224733056 -4.301257627817722 -14.783897215749697 -3.7905102284155947 0.016192453057139754 -0.03572650241160064 -0.02153874763817832 0.03477178501050349 -10.771427283827007 0.023127488181238283 
